HIERARCHY
ROOT Hips
{
	OFFSET 0.00000 0.00000 0.00000
	CHANNELS 6 Xposition Yposition Zposition Zrotation Yrotation Xrotation 
	JOINT LHipJoint
	{
		OFFSET 0 0 0
		CHANNELS 3 Zrotation Yrotation Xrotation
		JOINT LeftUpLeg
		{
			OFFSET 1.67711 -1.75950 0.70433
			CHANNELS 3 Zrotation Yrotation Xrotation
			JOINT LeftLeg
			{
				OFFSET 2.44937 -6.72958 0.00000
				CHANNELS 3 Zrotation Yrotation Xrotation
				JOINT LeftFoot
				{
					OFFSET 2.61292 -7.17894 0.00000
					CHANNELS 3 Zrotation Yrotation Xrotation
					JOINT LeftToeBase
					{
						OFFSET 0.17811 -0.48914 1.82515
						CHANNELS 3 Zrotation Yrotation Xrotation
						End Site
						{
							OFFSET -0.00112 -0.00292 0.95564
						}
					}
				}
			}
		}
	}
	JOINT RHipJoint
	{
		OFFSET 0 0 0
		CHANNELS 3 Zrotation Yrotation Xrotation
		JOINT RightUpLeg
		{
			OFFSET -1.61866 -1.75949 0.70433
			CHANNELS 3 Zrotation Yrotation Xrotation
			JOINT RightLeg
			{
				OFFSET -2.36243 -6.49072 0.00000
				CHANNELS 3 Zrotation Yrotation Xrotation
				JOINT RightFoot
				{
					OFFSET -2.64336 -7.26259 0.00000
					CHANNELS 3 Zrotation Yrotation Xrotation
					JOINT RightToeBase
					{
						OFFSET -0.18169 -0.49935 1.90192
						CHANNELS 3 Zrotation Yrotation Xrotation
						End Site
						{
							OFFSET 0.00039 0.00229 0.99264
						}
					}
				}
			}
		}
	}
	JOINT LowerBack
	{
		OFFSET 0 0 0
		CHANNELS 3 Zrotation Yrotation Xrotation
		JOINT Spine
		{
			OFFSET -0.01926 2.19655 -0.12599
			CHANNELS 3 Zrotation Yrotation Xrotation
			JOINT Spine1
			{
				OFFSET 0.01663 2.20532 -0.00079
				CHANNELS 3 Zrotation Yrotation Xrotation
				JOINT Neck
				{
					OFFSET 0 0 0
					CHANNELS 3 Zrotation Yrotation Xrotation
					JOINT Neck1
					{
						OFFSET 0.10604 1.75174 0.14226
						CHANNELS 3 Zrotation Yrotation Xrotation
						JOINT Head
						{
							OFFSET -0.09898 1.68516 -0.48414
							CHANNELS 3 Zrotation Yrotation Xrotation
							End Site
							{
								OFFSET -0.02896 1.78316 -0.18415
							}
						}
					}
				}
				JOINT LeftShoulder
				{
					OFFSET 0 0 0
					CHANNELS 3 Zrotation Yrotation Xrotation
					JOINT LeftArm
					{
						OFFSET 3.30655 1.16959 -0.30867
						CHANNELS 3 Zrotation Yrotation Xrotation
						JOINT LeftForeArm
						{
							OFFSET 5.35289 -0.00000 -0.00000
							CHANNELS 3 Zrotation Yrotation Xrotation
							JOINT LeftHand
							{
								OFFSET 3.27727 -0.00000 -0.00000
								CHANNELS 3 Zrotation Yrotation Xrotation
								JOINT LeftFingerBase
								{
									OFFSET 0 0 0
									CHANNELS 3 Zrotation Yrotation Xrotation
									JOINT LeftHandIndex1
									{
										OFFSET 0.54443 0.00002 0.00009
										CHANNELS 3 Zrotation Yrotation Xrotation
										End Site
										{
											OFFSET 0.43891 -0.00000 -0.00000
										}
									}
								}
								JOINT LThumb
								{
									OFFSET 0 0 0
									CHANNELS 3 Zrotation Yrotation Xrotation
									End Site
									{
										OFFSET 0.44564 0.00002 0.44570
									}
								}
							}
						}
					}
				}
				JOINT RightShoulder
				{
					OFFSET 0 0 0
					CHANNELS 3 Zrotation Yrotation Xrotation
					JOINT RightArm
					{
						OFFSET -3.27172 0.97864 -0.36131
						CHANNELS 3 Zrotation Yrotation Xrotation
						JOINT RightForeArm
						{
							OFFSET -5.52076 -0.00317 -0.00590
							CHANNELS 3 Zrotation Yrotation Xrotation
							JOINT RightHand
							{
								OFFSET -3.32364 -0.00000 -0.00000
								CHANNELS 3 Zrotation Yrotation Xrotation
								JOINT RightFingerBase
								{
									OFFSET 0 0 0
									CHANNELS 3 Zrotation Yrotation Xrotation
									JOINT RightHandIndex1
									{
										OFFSET -0.73223 -0.00000 -0.00000
										CHANNELS 3 Zrotation Yrotation Xrotation
										End Site
										{
											OFFSET -0.59035 -0.00000 -0.00000
										}
									}
								}
								JOINT RThumb
								{
									OFFSET 0 0 0
									CHANNELS 3 Zrotation Yrotation Xrotation
									End Site
									{
										OFFSET -0.59936 -0.00000 0.59936
									}
								}
							}
						}
					}
				}
			}
		}
	}
}
MOTION
Frames: 11
Frame Time: .0083333
15.3798 19.3936 5.1321 3.1207 13.0649 2.7332 0.0000 0.0000 0.0000 -13.6651 -9.8427 -16.1377 21.8904 19.9141 95.5349 -1.9580 -24.5304 15.8328 0.4544 4.3243 11.9909 0.0000 0.0000 0.0000 17.5421 4.9405 -31.0240 -4.9325 -13.3073 40.5302 1.1846 -21.7213 3.5440 -1.1446 6.7935 -19.1051 -2.6158 0.5246 6.2288 -1.2223 0.5188 1.8546 0.1722 0.2649 -1.5926 10.2701 7.9820 -19.8222 -14.3669 10.8637 14.1638 -5.0593 4.2839 9.1172 0.0000 0.0000 0.0000 -84.3426 10.7591 22.6803 50.9090 -53.3556 -26.9018 -0.0000 0.0000 -14.7321 23.0035 26.8198 10.8436 -7.1250 0.0000 -0.0000 -8.0725 58.5753 -2.6909 0.0000 0.0000 0.0000 86.7926 -21.0116 11.8920 -13.2844 21.7026 -2.5575 0.0000 0.0000 3.9910 -10.3144 19.9093 -3.5463 7.1250 -0.0000 -0.0000 11.6156 -10.0921 9.6053
15.3644 19.3074 5.2090 2.8794 12.4974 3.0596 0.0000 0.0000 0.0000 -13.3293 -9.9688 -16.6657 22.2278 19.8806 96.5260 -1.7833 -23.9115 16.9647 0.4219 4.1690 11.5527 0.0000 0.0000 0.0000 17.5995 6.0703 -32.2365 -5.4365 -13.8592 42.6762 1.1846 -21.7213 3.5440 -1.1446 6.7935 -19.1051 -2.0453 0.5393 6.5384 -1.1317 0.5676 1.9431 -0.0605 0.2887 -1.6707 9.8103 8.2433 -20.3205 -13.9348 11.2223 14.1426 -4.7605 4.4460 9.1872 -0.0000 0.0000 0.0000 -84.8817 9.9313 21.9990 48.3405 -52.3039 -24.8549 -0.0000 0.0000 -14.8291 24.0681 26.9076 11.4275 -7.1250 0.0000 -0.0000 -6.9368 58.9117 -2.3658 -0.0000 0.0000 0.0000 86.6188 -20.0842 12.6025 -13.3900 21.8559 -2.5967 0.0000 0.0000 4.6520 -9.9776 19.7305 -3.3989 7.1250 -0.0000 -0.0000 11.8303 -10.2994 9.7400
15.3512 19.2141 5.2724 2.7471 12.1546 3.5550 0.0000 0.0000 0.0000 -13.1367 -10.3357 -17.3551 22.5922 19.8381 97.5988 -1.6062 -23.2555 17.8710 0.3790 3.9539 10.9469 0.0000 0.0000 0.0000 17.5571 6.9289 -33.4902 -5.9307 -14.3608 44.7028 1.1846 -21.7213 3.5440 -1.1446 6.7935 -19.1051 -1.5581 0.5078 6.8646 -1.0926 0.5467 1.7939 -0.2959 0.2795 -2.0017 9.4563 8.4191 -20.1000 -13.5648 11.4842 13.9616 -4.5311 4.5990 9.0708 -0.0000 0.0000 0.0000 -85.2190 9.6940 21.7302 46.2813 -51.3810 -23.2356 -0.0000 0.0000 -15.1150 24.8006 26.6597 11.7132 -7.1250 0.0000 -0.0000 -6.0062 58.8251 -2.0344 -0.0000 0.0000 0.0000 86.4608 -19.6261 13.7119 -13.6780 22.2725 -2.7049 0.0000 0.0000 4.7843 -9.5894 19.5482 -3.2355 7.1250 -0.0000 -0.0000 12.0788 -10.5136 9.9003
15.3390 19.1371 5.3473 3.0949 11.7470 4.0297 0.0000 0.0000 0.0000 -13.6207 -10.6815 -17.9358 22.9197 19.7944 98.5649 -1.4073 -22.3752 18.3846 0.2823 3.4173 9.4427 0.0000 0.0000 0.0000 17.0322 7.6356 -34.5646 -6.4024 -14.8073 46.5761 1.1846 -21.7213 3.5440 -1.1446 6.7935 -19.1051 -1.7051 0.5217 7.0302 -1.1018 0.5516 1.8507 -0.2246 0.2824 -2.0365 9.5698 8.6176 -19.7894 -13.7461 11.7264 13.4572 -4.5741 4.7281 8.8959 0.0000 -0.0000 0.0000 -85.6465 9.1573 21.5076 44.0713 -50.3053 -21.5218 -0.0000 0.0000 -15.1837 24.8560 24.2821 10.7858 -7.1250 0.0000 -0.0000 -4.9761 56.3472 -1.3870 0.0000 -0.0000 0.0000 86.1689 -18.9635 15.1802 -14.1642 22.9690 -2.8919 0.0000 0.0000 4.3469 -9.2999 19.1312 -3.0720 7.1250 -0.0000 -0.0000 12.2659 -10.9495 9.9494
15.3231 19.0904 5.4380 3.6423 11.2904 4.4615 0.0000 0.0000 0.0000 -14.3590 -11.0256 -18.6437 23.2078 19.7515 99.4163 -1.2215 -21.4237 18.5570 0.2639 3.3049 9.1288 0.0000 0.0000 0.0000 16.3024 8.3269 -35.4553 -6.8032 -15.1639 48.1259 1.1846 -21.7213 3.5440 -1.1446 6.7935 -19.1051 -2.2707 0.5168 7.1069 -1.0427 0.5077 2.0118 0.1575 0.2605 -1.9177 9.9879 8.7599 -19.2962 -14.4689 11.8752 12.5141 -4.8701 4.8003 8.5937 0.0000 0.0000 0.0000 -86.1743 8.5614 21.3225 41.9035 -49.1581 -19.8675 -0.0000 0.0000 -15.0276 26.1328 27.1564 12.6216 -7.1250 0.0000 -0.0000 -4.7242 59.6604 -1.6932 0.0000 0.0000 0.0000 85.7033 -18.0668 16.5086 -14.6858 23.7065 -3.0985 0.0000 0.0000 4.0951 -9.1412 18.9873 -2.9969 7.1250 -0.0000 -0.0000 12.3689 -11.1045 9.9969
15.3114 19.0531 5.5195 4.0135 11.0442 4.8764 0.0000 0.0000 0.0000 -14.8942 -11.4449 -19.0331 23.4487 19.7124 100.1299 -0.9435 -20.1084 19.2553 0.2083 2.9386 8.1079 0.0000 0.0000 0.0000 15.7826 8.8256 -36.1796 -7.0956 -15.4118 49.2348 1.1846 -21.7213 3.5440 -1.1446 6.7935 -19.1051 -2.5589 0.4337 7.2483 -0.9653 0.3752 2.0759 0.4097 0.1947 -1.9296 10.4677 8.7863 -18.8739 -15.1940 11.8805 11.8924 -5.2016 4.7983 8.4008 -0.0000 0.0000 0.0000 -86.4858 8.2298 21.5145 39.9316 -48.0293 -18.3883 -0.0000 0.0000 -14.7811 26.0195 25.5502 11.8895 -7.1250 0.0000 -0.0000 -4.1840 57.9425 -1.3268 -0.0000 0.0000 0.0000 85.3508 -17.1987 17.3699 -15.1794 24.3954 -3.2997 0.0000 0.0000 4.2243 -8.4575 18.8144 -2.7455 7.1250 -0.0000 -0.0000 12.8106 -11.3295 10.3120
15.3044 19.0237 5.5935 4.1254 11.0097 5.1605 0.0000 0.0000 0.0000 -15.1549 -11.9147 -19.5180 23.7181 19.6653 100.9296 -0.7683 -19.1850 19.5472 0.2821 3.4161 9.4395 0.0000 0.0000 0.0000 15.6560 9.0353 -36.4273 -7.2577 -15.5451 49.8425 1.1846 -21.7213 3.5440 -1.1446 6.7935 -19.1051 -2.4902 0.3026 7.4226 -0.8442 0.2055 2.1851 0.5104 0.1091 -1.9095 10.4527 8.9100 -19.2987 -15.3070 12.0833 12.1845 -5.1981 4.8546 8.6087 0.0000 0.0000 0.0000 -86.5698 7.8487 22.1812 37.9068 -46.7797 -16.8976 -0.0000 0.0000 -14.6152 27.0734 27.7632 13.3927 -7.1250 0.0000 -0.0000 -3.9100 60.5291 -1.4818 0.0000 0.0000 0.0000 85.1524 -16.3126 17.8722 -15.7968 25.2444 -3.5589 0.0000 0.0000 4.5035 -7.7204 18.4875 -2.4615 7.1250 -0.0000 -0.0000 13.2906 -11.7062 10.6143
15.2832 18.9944 5.6868 4.0171 10.8392 5.3412 0.0000 0.0000 0.0000 -14.9298 -12.0111 -20.0401 23.9998 19.6120 101.7676 -0.5928 -18.3388 20.0593 0.0388 1.2706 3.4938 0.0000 0.0000 0.0000 15.9649 9.5060 -36.0829 -7.2992 -15.5788 49.9971 1.1846 -21.7213 3.5440 -1.1446 6.7935 -19.1051 -2.5212 0.2495 7.4683 -0.6373 0.1376 2.2613 0.7471 0.0739 -1.8549 10.1294 9.0909 -19.6751 -14.9771 12.3853 12.6195 -4.9755 4.9795 8.8141 0.0000 -0.0000 0.0000 -86.5354 7.4587 23.0639 35.7302 -45.3266 -15.3303 -0.0000 0.0000 -14.3153 27.1131 28.3461 13.6637 -7.1250 0.0000 -0.0000 -4.1321 61.1523 -1.6272 0.0000 -0.0000 0.0000 85.0048 -15.7034 18.5774 -16.5751 26.2942 -3.8972 0.0000 0.0000 4.6783 -7.7593 18.6190 -2.4910 7.1250 -0.0000 -0.0000 13.2631 -11.5747 10.6282
15.2782 18.9830 5.7767 4.1556 10.8723 5.6675 0.0000 0.0000 0.0000 -15.2046 -12.4595 -20.4934 24.2560 19.5601 102.5319 -0.3280 -16.8404 20.5131 0.0306 1.1294 3.1048 0.0000 0.0000 0.0000 15.9651 9.5722 -35.8370 -7.2613 -15.5480 49.8557 1.1846 -21.7213 3.5440 -1.1446 6.7935 -19.1051 -2.5356 0.0954 7.5784 -0.6072 -0.0748 2.0989 0.8052 -0.0283 -2.0768 10.3707 9.1595 -19.2630 -14.9125 12.4696 12.8775 -4.9906 5.0483 8.8501 -0.0000 -0.0000 0.0000 -86.3772 7.3072 23.9082 33.4624 -43.6825 -13.7404 -0.0000 0.0000 -13.7099 26.5596 27.2550 12.8941 -7.1250 0.0000 -0.0000 -4.2789 59.8676 -1.5544 -0.0000 -0.0000 0.0000 84.9018 -15.5345 19.7315 -17.5223 27.5412 -4.3261 0.0000 0.0000 4.2848 -8.0349 18.8338 -2.6092 7.1250 -0.0000 -0.0000 13.0823 -11.3433 10.5391
15.2655 18.9912 5.8616 4.0993 10.7393 5.9848 0.0000 0.0000 0.0000 -15.0294 -12.6480 -21.5324 24.5400 19.4985 103.3815 -0.1287 -15.5396 20.6926 0.0009 0.1946 0.5346 0.0000 0.0000 0.0000 16.1507 10.0398 -35.5479 -7.1899 -15.4898 49.5890 1.1846 -21.7213 3.5440 -1.1446 6.7935 -19.1051 -2.5337 -0.0164 7.5117 -0.4559 -0.2184 2.0506 0.9732 -0.0996 -2.0844 10.3760 9.2616 -19.0392 -14.7146 12.6338 13.2162 -4.9038 5.1439 8.9310 0.0000 -0.0000 0.0000 -86.3082 6.8090 24.6341 31.4557 -42.1089 -12.3743 -0.0000 0.0000 -12.1473 25.9806 28.6269 13.1416 -7.1250 0.0000 -0.0000 -5.5987 61.1592 -2.2075 0.0000 -0.0000 0.0000 84.6838 -15.1551 20.8983 -18.6031 28.9226 -4.8374 0.0000 0.0000 3.5303 -8.3614 19.1114 -2.7550 7.1250 -0.0000 -0.0000 12.8690 -11.0456 10.4386
15.2505 19.0062 5.9428 3.7382 10.5737 6.2170 0.0000 0.0000 0.0000 -14.4034 -12.7993 -23.1427 24.8836 19.4183 104.4131 -0.0918 -14.9225 20.1826 0.2804 -3.4059 -9.4110 0.0000 0.0000 0.0000 16.6528 10.6937 -35.1191 -7.1101 -15.4239 49.2894 1.1846 -21.7213 3.5440 -1.1446 6.7935 -19.1051 -2.2495 -0.0708 7.2439 -0.2185 -0.2531 2.2317 1.0600 -0.1226 -1.7481 9.4172 9.4631 -19.3085 -13.6764 12.9764 13.5247 -4.3273 5.3302 8.9755 -0.0000 -0.0000 0.0000 -86.2174 5.8189 25.2885 29.2272 -40.2217 -10.9071 -0.0000 0.0000 -9.8503 24.0698 27.8498 11.7870 -7.1250 0.0000 -0.0000 -7.3968 59.8845 -2.6959 -0.0000 -0.0000 0.0000 84.5812 -14.4230 21.5788 -19.7797 30.3761 -5.4195 0.0000 0.0000 2.7806 -8.8120 19.4340 -2.9527 7.1250 -0.0000 -0.0000 12.5772 -10.6922 10.2827
